<?xml version="1.0" encoding="UTF-8"?><svg id="_레이어_2" xmlns="http://www.w3.org/2000/svg" xmlns:xlink="http://www.w3.org/1999/xlink" viewBox="0 0 579 579"><defs><style>.cls-1,.cls-2,.cls-3,.cls-4,.cls-5{fill:none;}.cls-2,.cls-6{letter-spacing:0em;}.cls-2,.cls-3,.cls-4,.cls-5{stroke:#000;stroke-miterlimit:10;}.cls-2,.cls-3,.cls-4,.cls-5,.cls-7{font-family:NotoSans-Black, 'Noto Sans';}.cls-6,.cls-8{font-family:NotoSans-BlackItalic, 'Noto Sans';}.cls-3{letter-spacing:0em;}.cls-9{font-size:40.59px;}.cls-10{fill:url(#_새_패턴_3);}.cls-5{letter-spacing:-.04em;}</style><pattern id="_새_패턴_3" x="0" y="0" width="594.9" height="424.77" patternTransform="translate(-403 -105)" patternUnits="userSpaceOnUse" viewBox="0 0 594.9 424.77"><g><rect class="cls-1" width="594.9" height="424.77"/><text class="cls-9" transform="translate(297.95 406.46)"><tspan class="cls-6" x="0" y="0">W</tspan><tspan class="cls-8" x="37.54" y="0">ANG D</tspan><tspan class="cls-6" x="163.69" y="0">OW</tspan><tspan class="cls-8" x="230.74" y="0">ON’S</tspan><tspan class="cls-7" x="324.86" y="0"> </tspan><tspan class="cls-4" x="335.41" y="0">PORTFOLIO</tspan><tspan class="cls-5" x="0" y="55">W</tspan><tspan class="cls-3" x="40.55" y="55">ANG D</tspan><tspan class="cls-2" x="174.24" y="55">OW</tspan><tspan class="cls-4" x="247.95" y="55">ON’S </tspan><tspan class="cls-8" x="358.26" y="55">PORTFOLIO</tspan><tspan class="cls-7" x="583.85" y="55"> </tspan></text><text class="cls-9" transform="translate(-296.95 406.46)"><tspan class="cls-6" x="0" y="0">W</tspan><tspan class="cls-8" x="37.54" y="0">ANG D</tspan><tspan class="cls-6" x="163.69" y="0">OW</tspan><tspan class="cls-8" x="230.74" y="0">ON’S</tspan><tspan class="cls-7" x="324.86" y="0"> </tspan><tspan class="cls-4" x="335.41" y="0">PORTFOLIO</tspan><tspan class="cls-5" x="0" y="55">W</tspan><tspan class="cls-3" x="40.55" y="55">ANG D</tspan><tspan class="cls-2" x="174.24" y="55">OW</tspan><tspan class="cls-4" x="247.95" y="55">ON’S </tspan><tspan class="cls-8" x="358.26" y="55">PORTFOLIO</tspan><tspan class="cls-7" x="583.85" y="55"> </tspan></text><text class="cls-9" transform="translate(149.22 300.27)"><tspan class="cls-6" x="0" y="0">W</tspan><tspan class="cls-8" x="37.54" y="0">ANG D</tspan><tspan class="cls-6" x="163.69" y="0">OW</tspan><tspan class="cls-8" x="230.74" y="0">ON’S</tspan><tspan class="cls-7" x="324.86" y="0"> </tspan><tspan class="cls-4" x="335.41" y="0">PORTFOLIO</tspan><tspan class="cls-5" x="0" y="55">W</tspan><tspan class="cls-3" x="40.55" y="55">ANG D</tspan><tspan class="cls-2" x="174.24" y="55">OW</tspan><tspan class="cls-4" x="247.95" y="55">ON’S </tspan><tspan class="cls-8" x="358.26" y="55">PORTFOLIO</tspan><tspan class="cls-7" x="583.85" y="55"> </tspan></text><text class="cls-9" transform="translate(-445.67 300.27)"><tspan class="cls-6" x="0" y="0">W</tspan><tspan class="cls-8" x="37.54" y="0">ANG D</tspan><tspan class="cls-6" x="163.69" y="0">OW</tspan><tspan class="cls-8" x="230.74" y="0">ON’S</tspan><tspan class="cls-7" x="324.86" y="0"> </tspan><tspan class="cls-4" x="335.41" y="0">PORTFOLIO</tspan><tspan class="cls-5" x="0" y="55">W</tspan><tspan class="cls-3" x="40.55" y="55">ANG D</tspan><tspan class="cls-2" x="174.24" y="55">OW</tspan><tspan class="cls-4" x="247.95" y="55">ON’S </tspan><tspan class="cls-8" x="358.26" y="55">PORTFOLIO</tspan><tspan class="cls-7" x="583.85" y="55"> </tspan></text><text class="cls-9" transform="translate(.5 194.07)"><tspan class="cls-6" x="0" y="0">W</tspan><tspan class="cls-8" x="37.54" y="0">ANG D</tspan><tspan class="cls-6" x="163.69" y="0">OW</tspan><tspan class="cls-8" x="230.74" y="0">ON’S</tspan><tspan class="cls-7" x="324.86" y="0"> </tspan><tspan class="cls-4" x="335.41" y="0">PORTFOLIO</tspan><tspan class="cls-5" x="0" y="55">W</tspan><tspan class="cls-3" x="40.55" y="55">ANG D</tspan><tspan class="cls-2" x="174.24" y="55">OW</tspan><tspan class="cls-4" x="247.95" y="55">ON’S </tspan><tspan class="cls-8" x="358.26" y="55">PORTFOLIO</tspan><tspan class="cls-7" x="583.85" y="55"> </tspan></text><text class="cls-9" transform="translate(446.67 87.88)"><tspan class="cls-6" x="0" y="0">W</tspan><tspan class="cls-8" x="37.54" y="0">ANG D</tspan><tspan class="cls-6" x="163.69" y="0">OW</tspan><tspan class="cls-8" x="230.74" y="0">ON’S</tspan><tspan class="cls-7" x="324.86" y="0"> </tspan><tspan class="cls-4" x="335.41" y="0">PORTFOLIO</tspan><tspan class="cls-5" x="0" y="55">W</tspan><tspan class="cls-3" x="40.55" y="55">ANG D</tspan><tspan class="cls-2" x="174.24" y="55">OW</tspan><tspan class="cls-4" x="247.95" y="55">ON’S </tspan><tspan class="cls-8" x="358.26" y="55">PORTFOLIO</tspan><tspan class="cls-7" x="583.85" y="55"> </tspan></text><text class="cls-9" transform="translate(-148.22 87.88)"><tspan class="cls-6" x="0" y="0">W</tspan><tspan class="cls-8" x="37.54" y="0">ANG D</tspan><tspan class="cls-6" x="163.69" y="0">OW</tspan><tspan class="cls-8" x="230.74" y="0">ON’S</tspan><tspan class="cls-7" x="324.86" y="0"> </tspan><tspan class="cls-4" x="335.41" y="0">PORTFOLIO</tspan><tspan class="cls-5" x="0" y="55">W</tspan><tspan class="cls-3" x="40.55" y="55">ANG D</tspan><tspan class="cls-2" x="174.24" y="55">OW</tspan><tspan class="cls-4" x="247.95" y="55">ON’S </tspan><tspan class="cls-8" x="358.26" y="55">PORTFOLIO</tspan><tspan class="cls-7" x="583.85" y="55"> </tspan></text><text class="cls-9" transform="translate(297.95 -18.31)"><tspan class="cls-6" x="0" y="0">W</tspan><tspan class="cls-8" x="37.54" y="0">ANG D</tspan><tspan class="cls-6" x="163.69" y="0">OW</tspan><tspan class="cls-8" x="230.74" y="0">ON’S</tspan><tspan class="cls-7" x="324.86" y="0"> </tspan><tspan class="cls-4" x="335.41" y="0">PORTFOLIO</tspan><tspan class="cls-5" x="0" y="55">W</tspan><tspan class="cls-3" x="40.55" y="55">ANG D</tspan><tspan class="cls-2" x="174.24" y="55">OW</tspan><tspan class="cls-4" x="247.95" y="55">ON’S </tspan><tspan class="cls-8" x="358.26" y="55">PORTFOLIO</tspan><tspan class="cls-7" x="583.85" y="55"> </tspan></text><text class="cls-9" transform="translate(-296.95 -18.31)"><tspan class="cls-6" x="0" y="0">W</tspan><tspan class="cls-8" x="37.54" y="0">ANG D</tspan><tspan class="cls-6" x="163.69" y="0">OW</tspan><tspan class="cls-8" x="230.74" y="0">ON’S</tspan><tspan class="cls-7" x="324.86" y="0"> </tspan><tspan class="cls-4" x="335.41" y="0">PORTFOLIO</tspan><tspan class="cls-5" x="0" y="55">W</tspan><tspan class="cls-3" x="40.55" y="55">ANG D</tspan><tspan class="cls-2" x="174.24" y="55">OW</tspan><tspan class="cls-4" x="247.95" y="55">ON’S </tspan><tspan class="cls-8" x="358.26" y="55">PORTFOLIO</tspan><tspan class="cls-7" x="583.85" y="55"> </tspan></text></g></pattern></defs><g id="_레이어_1-2"><rect class="cls-10" width="579" height="579"/></g></svg>