<?xml version="1.0" encoding="UTF-8"?><svg id="_레이어_2" xmlns="http://www.w3.org/2000/svg" viewBox="0 0 451.9 502.39"><defs><style>.cls-1{fill:#fff;}</style></defs><g id="_레이어_2-2"><path d="M23.66,45.45c11.82-1.64,23.63-3.27,35.45-4.91,27.15-3.76,54.31-7.52,81.46-11.28,30.63-4.24,61.27-8.49,91.9-12.73,21.73-3.01,43.47-6.02,65.2-9.03,3.81-.53,7.68-1.32,11.52-1.6,2.62-.19,4.5,1.01,6.62,2.22l9.91,5.65c25.02,14.27,50.04,28.54,75.06,42.81,8.42,4.8,16.85,9.61,25.27,14.41,2.51,1.43,4.36,2.82,5.06,5.95,1.23,5.55,2.36,11.11,3.55,16.67,1.47,6.9,2.94,13.8,4.4,20.7,.42,1.95,.93,3.89,.99,5.89,.1,3.96,.14,7.92,.2,11.88,.35,20.33,.7,40.67,1.05,61,.51,29.88,1.02,59.77,1.54,89.65,.52,30.47,1.04,60.94,1.57,91.4,.39,22.57,.77,45.14,1.16,67.71,.1,5.65,.19,11.3,.29,16.94,.02,.91,.07,1.84,.05,2.75-.09,4.14-3.12,5.55-6.49,6.47-25.08,6.82-50.16,13.64-75.24,20.46-9.11,2.48-18.2,5-27.33,7.43-3.1,.83-6.34,.47-9.52,.37-18.28-.57-36.56-1.14-54.83-1.71-29.4-.92-58.79-1.84-88.19-2.76-30.42-.95-60.85-1.9-91.27-2.85-20.85-.65-41.71-1.3-62.56-1.96l-7.66-.24c-1.09-.03-2.39,.12-3.46-.11-2.19-.47-1.27-4.85-1.24-6.49l.36-20.27c.18-10.46,.37-20.92,.55-31.38,.03-1.62-1.4-3-3-3H5.38c-.13,0-1.33-.12-1.43,0,.43-.58,1.48,2.76,2.07,1.9,.09-.12-.02-.48,0-.64,.21-1.63,0-3.44,0-5.08,0-4.96-.1-9.93,.01-14.88s.35-9.9,.53-14.84c.4-11.14,.8-22.29,1.2-33.43l1.68-46.93c.65-18.23,1.3-36.46,1.96-54.68s1.37-38.2,2.05-57.3,1.3-36.39,1.95-54.59c.56-15.52,1.11-31.05,1.67-46.57l1.19-33.23c.17-4.84,.14-9.74,.52-14.57,.23-2.9,2.07-4.7,4.9-5.21,3.79-.69,2.19-6.47-1.6-5.79-6.05,1.1-9.13,6.25-9.34,11.98l-.24,6.74c-.34,9.52-.68,19.04-1.02,28.56-.52,14.67-1.05,29.33-1.57,44-.64,17.95-1.28,35.9-1.93,53.84-.69,19.36-1.38,38.73-2.08,58.09s-1.35,37.83-2.03,56.74c-.59,16.6-1.19,33.19-1.78,49.79l-1.33,37.24-.68,19.09c-.08,2.13-.05,4.26-.05,6.39v13.31c0,1.25-.15,2.61,.38,3.78,.95,2.1,2.98,2.29,4.98,2.29h10.64l-3-3c-.2,11.28-.4,22.55-.6,33.83-.11,6.41-.23,12.82-.34,19.23-.02,1.24-.11,2.5-.07,3.74,.14,4.11,3.17,7.06,7.22,7.34,11.81,.81,23.75,.74,35.58,1.11,26.93,.84,53.86,1.68,80.79,2.52,31.6,.99,63.2,1.98,94.8,2.96,25.34,.79,50.68,1.58,76.02,2.38,7.06,.22,14.12,.44,21.18,.66,3.73,.12,7.24,.37,10.92-.61,24.24-6.48,48.43-13.17,72.65-19.76,10.13-2.75,20.25-5.51,30.38-8.26,5.83-1.58,10.24-5.63,10.34-12.06,.01-.77-.03-1.55-.04-2.32-.26-15.15-.52-30.3-.78-45.45l-1.43-83.32c-.54-31.51-1.08-63.01-1.62-94.52-.45-26.45-.91-52.9-1.36-79.36-.21-12.19-.28-24.4-.63-36.59-.08-2.69-.77-5.32-1.33-7.94-1.53-7.17-3.05-14.35-4.58-21.52-1.1-5.18-2.08-10.41-3.31-15.56-1.03-4.29-3.86-7-7.51-9.08-21.66-12.35-43.32-24.7-64.98-37.06-11.91-6.79-23.81-13.58-35.72-20.37-6.16-3.52-13.51-9.37-20.94-8.41-12.61,1.63-25.2,3.49-37.8,5.24-27.81,3.85-55.62,7.7-83.44,11.56-30.64,4.24-61.27,8.49-91.91,12.73-21.14,2.93-42.27,5.85-63.41,8.78-3.02,.42-6.04,.84-9.05,1.25-1.62,.22-2.47,2.27-2.1,3.69,.46,1.73,2.09,2.32,3.69,2.1Z"/><path d="M24.95,58.41c3.23-.39,6.45-.79,9.68-1.18l25.9-3.16c12.47-1.52,24.94-3.04,37.41-4.56,14.73-1.8,29.47-3.59,44.2-5.39,15.43-1.88,30.86-3.76,46.29-5.64,14.55-1.77,29.11-3.55,43.66-5.32,12.11-1.48,24.22-2.95,36.33-4.43,8.09-.99,16.18-1.97,24.28-2.96l6.15-.75c.44-.05,.88-.12,1.32-.16,2.81-.27,5.14,1.43,5.22,4.38,.07,2.46-.1,4.96-.15,7.42-.14,6.83-.28,13.66-.43,20.5-.21,10.31-.43,20.63-.64,30.94-.27,12.92-.54,25.83-.81,38.75-.3,14.64-.61,29.28-.91,43.92-.32,15.49-.64,30.97-.97,46.46-.32,15.45-.64,30.91-.96,46.36-.3,14.54-.6,29.09-.91,43.63-.27,12.75-.53,25.51-.8,38.26-.21,10.09-.42,20.17-.63,30.26-.14,6.54-.27,13.08-.41,19.62-.07,3.17,.8,8.89-2.89,10.31-1.17,.45-2.66,.27-3.9,.26l-6.93-.07c-8.51-.09-17.03-.17-25.54-.26-12.41-.13-24.82-.25-37.23-.38-14.75-.15-29.51-.3-44.26-.45-15.55-.16-31.09-.32-46.64-.48s-29.58-.3-44.37-.46c-12.48-.13-24.97-.26-37.45-.38-8.63-.09-17.26-.18-25.88-.27-3.28-.03-6.7,.21-9.97-.12-5.27-.53-3.84-7.5-3.71-11.13,.26-7,.52-14,.79-21.01,.4-10.75,.81-21.51,1.21-32.26,.5-13.43,1.01-26.86,1.51-40.29,.56-15.03,1.13-30.06,1.69-45.09s1.17-31.11,1.75-46.67,1.12-30.01,1.69-45.01c.5-13.38,1-26.76,1.5-40.13,.4-10.67,.8-21.35,1.2-32.02l.78-20.69c.14-3.77-.72-9.55,4.25-10.38,1.9-.32,1.09-3.21-.8-2.89-6.75,1.13-6.24,7.67-6.43,12.77-.26,6.84-.51,13.69-.77,20.53-.4,10.69-.8,21.39-1.2,32.08l-1.51,40.38c-.57,15.19-1.14,30.37-1.71,45.56-.59,15.68-1.18,31.37-1.76,47.05s-1.13,30.27-1.7,45.41c-.51,13.49-1.01,26.97-1.52,40.46-.4,10.73-.8,21.47-1.21,32.2l-.78,20.7c-.18,4.77-1.24,10.76,4.45,12.96,1.53,.59,3.11,.51,4.71,.53l6.86,.07c8.59,.09,17.17,.18,25.76,.26,12.52,.13,25.04,.26,37.57,.39,14.89,.15,29.78,.31,44.68,.46,15.67,.16,31.35,.32,47.02,.48s29.85,.31,44.77,.46c12.46,.13,24.91,.26,37.37,.38,8.47,.09,16.93,.17,25.4,.26l6.72,.07c1.98,.02,3.84,.1,5.66-.94,4.39-2.5,3.73-7.72,3.82-11.99,.13-6.41,.27-12.82,.4-19.24,.21-10.05,.42-20.11,.63-30.16,.27-12.79,.53-25.59,.8-38.38,.31-14.7,.61-29.39,.92-44.09,.32-15.58,.65-31.15,.97-46.73,.32-15.61,.65-31.23,.97-46.84,.31-14.81,.62-29.61,.92-44.42,.27-12.98,.54-25.95,.81-38.93,.21-10.31,.43-20.62,.64-30.93,.14-6.74,.28-13.48,.42-20.22,.06-2.93,.73-6.91-.41-9.72-2.53-6.25-9.46-4.29-14.53-3.67-8,.98-16,1.95-23.99,2.93-12.13,1.48-24.25,2.96-36.38,4.44-14.71,1.79-29.41,3.59-44.12,5.38-15.55,1.9-31.11,3.79-46.66,5.69s-29.7,3.62-44.54,5.43c-12.53,1.53-25.06,3.06-37.6,4.58-8.61,1.05-17.21,2.1-25.82,3.15-3.08,.38-6.15,.75-9.23,1.13-1.89,.23-1.92,3.23,0,3Z"/><path d="M318.49,7.69c-.07,2.82-.15,5.64-.22,8.46-.2,7.75-.4,15.49-.61,23.24-.3,11.67-.61,23.35-.91,35.02-.38,14.61-.76,29.21-1.14,43.82-.43,16.54-.86,33.08-1.3,49.61-.46,17.54-.92,35.08-1.37,52.63-.45,17.41-.91,34.81-1.36,52.22-.43,16.34-.85,32.68-1.28,49.02-.37,14.33-.75,28.65-1.12,42.98l-.88,33.59-.56,21.4c-.09,3.52,.89,9.91-4.19,10.11-4.05,.16-8.16-.12-12.21-.19-10.38-.16-20.75-.31-31.13-.47-14.65-.22-29.31-.44-43.96-.67-17.03-.26-34.05-.52-51.08-.77-17.53-.27-35.06-.53-52.59-.8-15.95-.24-31.9-.48-47.85-.73-12.51-.19-25.01-.38-37.52-.57l-21.37-.32c-.94-.01-1.88-.03-2.82-.04-3.38-.05-3.38,5.2,0,5.25,3.87,.06,7.73,.12,11.6,.18,10.23,.15,20.45,.31,30.68,.46l44.07,.67c17.07,.26,34.14,.52,51.2,.78,17.54,.27,35.08,.53,52.62,.8,16.11,.24,32.21,.49,48.32,.73,12.58,.19,25.16,.38,37.74,.57,7.18,.11,14.36,.22,21.53,.33,1.42,.02,2.87,.13,4.29-.09,5-.77,7.65-5.1,7.77-9.81l.36-13.68c.24-9.24,.48-18.48,.72-27.72,.34-12.89,.67-25.78,1.01-38.67,.4-15.45,.81-30.9,1.21-46.35,.45-17.05,.89-34.09,1.34-51.14,.46-17.7,.92-35.41,1.39-53.11s.9-34.41,1.35-51.62c.41-15.83,.83-31.65,1.24-47.48,.35-13.31,.69-26.61,1.04-39.92l.77-29.53,.42-16.14c.02-.68,.04-1.36,.05-2.04,.09-3.38-5.16-3.38-5.25,0h0Z"/><path d="M328.45,12.73c-.06,3.44-.12,6.89-.19,10.33-.17,9.37-.34,18.74-.5,28.11-.25,13.86-.5,27.72-.75,41.59l-.91,50.75c-.33,18.53-.66,37.06-1,55.59l-1.01,56.13c-.31,17.52-.63,35.04-.94,52.56-.26,14.74-.53,29.48-.79,44.22-.19,10.6-.38,21.2-.57,31.79-.09,5.01-.32,10.05-.27,15.06,0,.21,0,.43-.01,.65-.01,.66,.47,1.27,1.1,1.45,3.56,.99,7.12,1.98,10.68,2.97,3.8,1.06,6.28,3.54,6.53,7.6,.32,5.16,.46,10.35,.69,15.51,.82,18.41,1.65,36.81,2.47,55.22,.22,4.83,.43,9.67,.65,14.5,.09,1.92,3.09,1.93,3,0-.6-13.32-1.19-26.65-1.79-39.97-.68-15.1-1.2-30.21-2.03-45.3-.27-4.86-3.07-8.73-7.78-10.18-3.84-1.19-7.76-2.16-11.63-3.23l1.1,1.45c.06-3.44,.12-6.89,.19-10.33,.17-9.37,.34-18.74,.5-28.11,.25-13.86,.5-27.72,.75-41.59l.91-50.75c.33-18.53,.66-37.06,1-55.59l1.01-56.13c.31-17.52,.63-35.04,.94-52.56,.26-14.74,.53-29.48,.79-44.22,.19-10.6,.38-21.2,.57-31.79,.09-5.01,.32-10.05,.27-15.06,0-.21,0-.43,.01-.65,.03-1.93-2.97-1.93-3,0h0Z"/><path d="M32.02,80.76c2.27-.28,4.53-.56,6.8-.83l18.42-2.26,27.22-3.33c11.07-1.36,22.13-2.71,33.2-4.07l36.36-4.46,36.83-4.51c11.37-1.39,22.73-2.79,34.1-4.18,9.67-1.19,19.35-2.37,29.02-3.56l20.79-2.55c3.27-.4,6.61-.63,9.85-1.21,.14-.02,.28-.03,.42-.05l-2.25-2.25c-.04,2.03-.07,4.06-.11,6.1-.1,5.53-.19,11.06-.29,16.59-.14,8.18-.29,16.36-.43,24.54-.18,9.98-.35,19.96-.53,29.94-.19,10.93-.38,21.87-.58,32.8-.19,11.03-.39,22.07-.58,33.1-.18,10.25-.36,20.5-.54,30.75l-.46,26.19c-.11,6.23-.22,12.46-.33,18.69-.05,2.95-.25,5.95-.16,8.91,0,.13,0,.26,0,.39l2.25-2.25c-2.29,.07-4.57,.14-6.86,.21-6.22,.19-12.45,.39-18.67,.58-9.17,.29-18.34,.57-27.51,.86-11.18,.35-22.36,.7-33.54,1.05-12.29,.38-24.58,.77-36.87,1.15-12.41,.39-24.81,.78-37.22,1.16l-34.58,1.08c-9.74,.3-19.49,.61-29.23,.91-7.03,.22-14.07,.44-21.1,.66-3.32,.1-6.68,.06-9.99,.31-.14,.01-.28,0-.42,.01l2.25,2.25c.06-1.82,.12-3.65,.19-5.47l.51-14.89,.76-22.14,.92-26.9,1.01-29.46c.34-9.91,.68-19.83,1.02-29.74l.95-27.73c.27-7.81,.53-15.63,.8-23.44l.58-16.87c.09-2.67,.27-5.35,.27-8.02,0-.11,0-.23,.01-.34,.1-2.9-4.4-2.89-4.5,0-.06,1.82-.12,3.65-.19,5.47l-.51,14.89-.76,22.14-.92,26.9-1.01,29.46c-.34,9.91-.68,19.83-1.02,29.74l-.95,27.73c-.27,7.81-.53,15.63-.8,23.44l-.58,16.87c-.09,2.67-.27,5.35-.27,8.02,0,.11,0,.23-.01,.34-.04,1.19,1.06,2.29,2.25,2.25,2.29-.07,4.57-.14,6.86-.21,6.22-.19,12.45-.39,18.67-.58,9.17-.29,18.34-.57,27.51-.86,11.18-.35,22.36-.7,33.54-1.05,12.29-.38,24.58-.77,36.87-1.15,12.41-.39,24.81-.78,37.22-1.16l34.58-1.08c9.74-.3,19.49-.61,29.23-.91,7.03-.22,14.07-.44,21.1-.66,3.33-.1,6.66-.16,9.99-.31,.14,0,.28,0,.42-.01,1.23-.04,2.23-1,2.25-2.25,.04-2.03,.07-4.06,.11-6.1,.1-5.53,.19-11.06,.29-16.59,.14-8.18,.29-16.36,.43-24.54,.18-9.98,.35-19.96,.53-29.94,.19-10.93,.38-21.87,.58-32.8,.19-11.03,.39-22.07,.58-33.1,.18-10.25,.36-20.5,.54-30.75l.46-26.19c.11-6.23,.22-12.46,.33-18.69,.05-2.97,.17-5.94,.16-8.91,0-.13,0-.26,0-.39,.02-1.11-1.05-2.4-2.25-2.25-2.27,.28-4.53,.56-6.8,.83l-18.42,2.26-27.22,3.33c-11.07,1.36-22.13,2.71-33.2,4.07-12.12,1.49-24.24,2.97-36.36,4.46l-36.83,4.51c-11.37,1.39-22.73,2.79-34.1,4.18l-29.02,3.56-20.79,2.55c-3.28,.4-6.57,.8-9.85,1.21-.14,.02-.28,.03-.42,.05-1.21,.15-2.25,.93-2.25,2.25,0,1.1,1.04,2.4,2.25,2.25Z"/><path d="M58.42,90.95c15.98-4.18,32.26-7.44,48.52-10.29,15.13-2.65,30.36-4.83,45.66-6.23,12.43-1.14,24.87-2.1,37.31-3.06,22.59-1.75,45.19-3.46,67.83-4.45,5.82-.26,11.83-.76,17.65-.24,.13,.01,.27,.03,.4,.04,.39,.04-.37-.09,.08,.01,.21,.05,.41,.09,.61,.15-.59-.19-.12,0,.13,.14,.36,.22,.72,.44,1.09,.65,.77,.45,1.56,.88,2.26,1.44,2.33,1.84,3.02,4.77,3.08,7.62,.18,7.97-.13,15.96-.27,23.93-.27,14.86-.59,29.72-.93,44.57-.39,16.89-.81,33.78-1.26,50.66-.37,13.79-.75,27.58-1.23,41.37-.15,4.22-.29,8.45-.5,12.67-.06,1.18-.11,2.37-.2,3.55-.02,.31-.06,.62-.08,.92-.02,.24,.16-.47,.01-.12-.24,.57-.33,1.26-.5,1.86-1.26,4.37-3.31,8.78-8.13,9.86-.93,.21,.4-.01-.19,.03-.13,0-.25,.02-.38,.04-.38,.03-.76,.06-1.14,.09-2.92,.2-5.85,.35-8.78,.5-11.38,.58-22.76,1.07-34.14,1.55-15.76,.67-31.51,1.31-47.27,1.93-16.76,.66-33.52,1.3-50.29,1.9-14.42,.52-28.84,1.03-43.26,1.46-8.5,.26-17.01,.58-25.52,.59-.81,0-1.62-.01-2.43-.04-.11,0-.21-.02-.32-.02-.16,0-.33-.14,.26,.04-.26-.08-.54-.11-.8-.18-2.97-.77-5.91-2.66-7.57-5.28-1.49-2.35-1.16-5.12-1.16-7.92-.01-11.09,.14-22.17,.28-33.26,.21-16.44,.49-32.88,.84-49.32s.72-31.72,1.31-47.57c.22-5.95,.46-11.89,.8-17.83,.12-2.18,.26-4.36,.44-6.54,.07-.84,.14-1.69,.23-2.53,.03-.31,.07-.63,.1-.94,.02-.21,.16-1.23,.08-.65,.13-.9,.26-1.76,.65-2.58,1.57-3.3,4.1-6.85,7.11-8.67,1.65-1,.14-3.6-1.51-2.59-3.36,2.04-6.06,5.56-7.81,8.99-.71,1.38-1.1,2.47-1.31,3.96-.53,3.7-.72,7.46-.94,11.19-.35,5.99-.59,11.99-.81,17.99-.28,7.57-.51,15.15-.71,22.73-.23,8.48-.43,16.96-.61,25.44s-.34,17.12-.49,25.67c-.13,7.97-.25,15.95-.36,23.92-.08,6.57-.16,13.13-.21,19.7-.04,4.48-.07,8.95-.06,13.43,0,3.58-.16,6.69,2.19,9.78s6.32,5.75,10.25,6.04c.77,.06,1.55,.04,2.31,.05,3.29,0,6.58-.08,9.87-.15,5.21-.12,10.43-.27,15.64-.43,6.74-.2,13.49-.42,20.23-.65,7.77-.26,15.53-.54,23.3-.82,8.42-.3,16.84-.62,25.27-.94s17.19-.66,25.79-1,16.57-.66,24.85-1c7.61-.31,15.22-.63,22.83-.96,6.42-.28,12.84-.56,19.26-.85,4.85-.22,9.7-.45,14.55-.7,2.79-.14,5.58-.28,8.37-.48,1.51-.11,2.97-.33,4.38-.95,4.45-1.96,6.62-6.71,7.9-11.12,.68-2.33,.79-4.56,.91-6.98,.21-4.27,.36-8.54,.5-12.81,.22-6.32,.41-12.63,.6-18.95,.23-7.68,.44-15.36,.65-23.03,.23-8.47,.44-16.95,.65-25.42s.42-17.09,.61-25.64c.19-8.06,.36-16.12,.53-24.19,.14-6.86,.28-13.72,.4-20.58,.09-5.08,.17-10.16,.23-15.24,.03-2.62,.11-5.25,.01-7.86-.15-3.94-1.45-7.57-4.7-9.95-1.78-1.3-3.6-2.51-5.81-2.72-5.77-.56-11.75-.03-17.52,.22-10.34,.45-20.67,1.09-30.99,1.78-12.56,.83-25.12,1.75-37.67,2.73-12.65,.98-25.31,1.94-37.95,3.13-15.45,1.46-30.82,3.67-46.09,6.37-11.57,2.04-23.09,4.37-34.55,6.98-4.39,1-8.78,2.02-13.13,3.16-1.87,.49-1.07,3.38,.8,2.89Z"/><path d="M246.67,451.26h46.07c.26,0,.52-.02,.78,0,1.66,.12,2.29,1.36,2.29,2.82v7.37c0,5.44,.27,10.95,0,16.38-.11,2.3-2.09,2.15-3.71,2.13l-6.59-.09c-12.29-.18-24.58-.35-36.88-.53-1.59-.02-3.67,.25-3.86-1.97-.15-1.79,0-3.67,0-5.47v-18.11c0-1.25,.4-2.44,1.9-2.53,.96-.06,.97-1.56,0-1.5-1.95,.12-3.33,1.5-3.4,3.46-.03,.71,0,1.42,0,2.13v19.79c0,2.35-.07,5.3,3.05,5.65,1.16,.13,2.36,.05,3.52,.07,2.76,.04,5.51,.08,8.27,.12,7.29,.1,14.58,.21,21.86,.31,4.51,.06,9.03,.25,13.53,.19,2.64-.03,3.8-2.03,3.8-4.4v-19.31c0-1.72,.41-4.24-.37-5.86-1.01-2.1-3.02-2.15-4.99-2.15h-45.27c-.97,0-.97,1.5,0,1.5Z"/><path d="M349.02,452.26c2.62-.29,5.24-.58,7.87-.87,.38-.04,.76-.08,1.13-.13,.4-.04,.75-.31,.75-.75,0-.37-.34-.8-.75-.75-2.62,.29-5.24,.58-7.87,.87-.38,.04-.76,.08-1.13,.13-.4,.04-.75,.31-.75,.75,0,.37,.34,.8,.75,.75h0Z"/><path d="M349.02,458.93c2.62-.28,5.24-.57,7.87-.85l1.13-.12c.4-.04,.75-.31,.75-.75,0-.37-.34-.79-.75-.75-2.62,.28-5.24,.57-7.87,.85l-1.13,.12c-.4,.04-.75,.31-.75,.75,0,.37,.34,.79,.75,.75h0Z"/><path d="M349.02,465.25c2.63-.33,5.25-.66,7.88-.99l1.12-.14c.4-.05,.75-.31,.75-.75,0-.37-.35-.8-.75-.75-2.63,.33-5.25,.66-7.88,.99l-1.12,.14c-.4,.05-.75,.31-.75,.75,0,.37,.35,.8,.75,.75h0Z"/><path d="M350.22,472.23c2.34-.34,4.67-.68,7.01-1.02l.99-.14c.4-.06,.62-.57,.52-.92-.12-.43-.52-.58-.92-.52-2.34,.34-4.67,.68-7.01,1.02l-.99,.14c-.4,.06-.62,.57-.52,.92,.12,.43,.52,.58,.92,.52h0Z"/><path d="M350.22,478.69c2.33-.43,4.66-.85,6.99-1.28,.34-.06,.67-.12,1.01-.18,.4-.07,.62-.56,.52-.92-.12-.42-.52-.6-.92-.52-2.33,.43-4.66,.85-6.99,1.28-.34,.06-.67,.12-1.01,.18-.4,.07-.62,.56-.52,.92,.12,.42,.52,.6,.92,.52h0Z"/><path d="M362.02,449.26c2.91-.29,5.83-.58,8.74-.87,.42-.04,.84-.08,1.26-.13s.75-.32,.75-.75c0-.37-.34-.79-.75-.75-2.91,.29-5.83,.58-8.74,.87-.42,.04-.84,.08-1.26,.13s-.75,.32-.75,.75c0,.37,.34,.79,.75,.75h0Z"/><path d="M362.02,456.5c2.92-.36,5.84-.72,8.76-1.09l1.24-.15c.4-.05,.75-.31,.75-.75,0-.37-.35-.8-.75-.75-2.92,.36-5.84,.72-8.76,1.09l-1.24,.15c-.4,.05-.75,.31-.75,.75,0,.37,.35,.8,.75,.75h0Z"/><path d="M362.22,463.17c3.2-.57,6.41-1.13,9.61-1.7,.46-.08,.93-.16,1.39-.25,.95-.17,.55-1.61-.4-1.45-3.2,.57-6.41,1.13-9.61,1.7-.46,.08-.93,.16-1.39,.25-.95,.17-.55,1.61,.4,1.45h0Z"/><path d="M362.22,469.33c3.21-.69,6.42-1.39,9.63-2.08,.46-.1,.91-.2,1.37-.3,.94-.2,.54-1.65-.4-1.45-3.21,.69-6.42,1.39-9.63,2.08-.46,.1-.91,.2-1.37,.3-.94,.2-.54,1.65,.4,1.45h0Z"/><path d="M363.22,475.23c2.91-.52,5.83-1.04,8.74-1.56,.42-.08,.84-.15,1.26-.23,.95-.17,.55-1.62-.4-1.45-2.91,.52-5.83,1.04-8.74,1.56-.42,.08-.84,.15-1.26,.23-.95,.17-.55,1.62,.4,1.45h0Z"/><path d="M377.22,447.23c2.91-.58,5.83-1.17,8.74-1.75,.42-.08,.84-.17,1.26-.25,.95-.19,.55-1.64-.4-1.45-2.91,.58-5.83,1.17-8.74,1.75-.42,.08-.84,.17-1.26,.25-.95,.19-.55,1.64,.4,1.45h0Z"/><path d="M377.22,453.23c2.71-.44,5.43-.88,8.14-1.31l1.16-.19c.4-.06,.62-.56,.52-.92-.12-.43-.52-.59-.92-.52-2.71,.44-5.43,.88-8.14,1.31l-1.16,.19c-.4,.06-.62,.56-.52,.92,.12,.43,.52,.59,.92,.52h0Z"/><path d="M377.22,460.04c2.71-.47,5.41-.94,8.12-1.42,.39-.07,.78-.14,1.17-.2s.62-.56,.52-.92c-.12-.42-.52-.59-.92-.52-2.71,.47-5.41,.94-8.12,1.42-.39,.07-.78,.14-1.17,.2s-.62,.56-.52,.92c.12,.42,.52,.59,.92,.52h0Z"/><path d="M378.22,466.23c2.26-.46,4.52-.92,6.79-1.38,.32-.07,.64-.13,.97-.2,.4-.08,.63-.55,.52-.92-.11-.41-.52-.6-.92-.52-2.26,.46-4.52,.92-6.79,1.38-.32,.07-.64,.13-.97,.2-.4,.08-.63,.55-.52,.92,.11,.41,.52,.6,.92,.52h0Z"/><path d="M377.76,472.23c2.55-.53,5.11-1.06,7.66-1.59,.36-.08,.73-.15,1.09-.23,.94-.2,.54-1.64-.4-1.45-2.55,.53-5.11,1.06-7.66,1.59-.36,.08-.73,.15-1.09,.23-.94,.2-.54,1.64,.4,1.45h0Z"/><path d="M391.22,443.23c2.91-.58,5.83-1.17,8.74-1.75,.42-.08,.84-.17,1.26-.25,.95-.19,.55-1.64-.4-1.45-2.91,.58-5.83,1.17-8.74,1.75-.42,.08-.84,.17-1.26,.25-.95,.19-.55,1.64,.4,1.45h0Z"/><path d="M391.22,450.2c2.91-.57,5.83-1.15,8.74-1.72,.42-.08,.84-.17,1.26-.25,.95-.19,.55-1.63-.4-1.45-2.91,.57-5.83,1.15-8.74,1.72-.42,.08-.84,.17-1.26,.25-.95,.19-.55,1.63,.4,1.45h0Z"/><path d="M391.7,455.85c2.77-.47,5.54-.94,8.32-1.42l1.2-.2c.4-.07,.62-.56,.52-.92-.12-.42-.52-.59-.92-.52-2.77,.47-5.54,.94-8.32,1.42l-1.2,.2c-.4,.07-.62,.56-.52,.92,.12,.42,.52,.59,.92,.52h0Z"/><path d="M391.22,463.17c2.92-.79,5.83-1.58,8.75-2.36l1.25-.34c.93-.25,.54-1.7-.4-1.45-2.92,.79-5.83,1.58-8.75,2.36l-1.25,.34c-.93,.25-.54,1.7,.4,1.45h0Z"/><path d="M391.7,468.9c2.65-.57,5.3-1.14,7.95-1.7,.38-.08,.75-.16,1.13-.24,.94-.2,.54-1.65-.4-1.45-2.65,.57-5.3,1.14-7.95,1.7-.38,.08-.75,.16-1.13,.24-.94,.2-.54,1.65,.4,1.45h0Z"/><path d="M406.02,440.26c2.62-.29,5.24-.58,7.87-.87,.38-.04,.76-.08,1.13-.13,.4-.04,.75-.31,.75-.75,0-.37-.34-.8-.75-.75-2.62,.29-5.24,.58-7.87,.87-.38,.04-.76,.08-1.13,.13-.4,.04-.75,.31-.75,.75,0,.37,.34,.8,.75,.75h0Z"/><path d="M406.22,447.23c2.63-.58,5.25-1.17,7.88-1.75,.37-.08,.75-.17,1.12-.25,.94-.21,.54-1.66-.4-1.45-2.63,.58-5.25,1.17-7.88,1.75-.37,.08-.75,.17-1.12,.25-.94,.21-.54,1.66,.4,1.45h0Z"/><path d="M405.32,453.23c2.89-.58,5.77-1.17,8.66-1.75,.41-.08,.82-.17,1.23-.25,.95-.19,.55-1.64-.4-1.45-2.89,.58-5.77,1.17-8.66,1.75-.41,.08-.82,.17-1.23,.25-.95,.19-.55,1.64,.4,1.45h0Z"/><path d="M406.22,459.6c2.45-.49,4.89-.98,7.34-1.46l1.06-.21c.95-.19,.55-1.63-.4-1.45-2.45,.49-4.89,.98-7.34,1.46l-1.06,.21c-.95,.19-.55,1.63,.4,1.45h0Z"/><path d="M406.84,465.23c2.44-.47,4.88-.94,7.32-1.42,.35-.07,.71-.14,1.06-.2,.95-.18,.55-1.63-.4-1.45-2.44,.47-4.88,.94-7.32,1.42-.35,.07-.71,.14-1.06,.2-.95,.18-.55,1.63,.4,1.45h0Z"/><path d="M418.02,437.26c2.91-.29,5.83-.58,8.74-.87,.42-.04,.84-.08,1.26-.13s.75-.32,.75-.75c0-.37-.34-.79-.75-.75-2.91,.29-5.83,.58-8.74,.87-.42,.04-.84,.08-1.26,.13s-.75,.32-.75,.75c0,.37,.34,.79,.75,.75h0Z"/><path d="M419.22,444.23c2.62-.47,5.24-.93,7.86-1.4l1.14-.2c.4-.07,.62-.56,.52-.92-.12-.42-.52-.59-.92-.52-2.62,.47-5.24,.93-7.86,1.4l-1.14,.2c-.4,.07-.62,.56-.52,.92,.12,.42,.52,.59,.92,.52h0Z"/><path d="M419.22,450.2c2.63-.57,5.25-1.15,7.88-1.72,.37-.08,.75-.16,1.12-.25,.94-.21,.54-1.65-.4-1.45-2.63,.57-5.25,1.15-7.88,1.72-.37,.08-.75,.16-1.12,.25-.94,.21-.54,1.65,.4,1.45h0Z"/><path d="M419.22,455.85c2.62-.47,5.24-.94,7.86-1.42l1.14-.2c.4-.07,.62-.56,.52-.92-.12-.42-.52-.6-.92-.52-2.62,.47-5.24,.94-7.86,1.42l-1.14,.2c-.4,.07-.62,.56-.52,.92,.12,.42,.52,.6,.92,.52h0Z"/><path d="M419.81,462.2c2.3-.51,4.61-1.01,6.91-1.52,.33-.07,.66-.14,.98-.22,.94-.21,.54-1.65-.4-1.45-2.3,.51-4.61,1.01-6.91,1.52-.33,.07-.66,.14-.98,.22-.94,.21-.54,1.65,.4,1.45h0Z"/><path d="M433.54,458.77c2.53-.45,5.06-.9,7.58-1.34,.37-.06,.73-.13,1.1-.19,.4-.07,.62-.56,.52-.92-.12-.42-.52-.59-.92-.52-2.53,.45-5.06,.9-7.58,1.34-.37,.06-.73,.13-1.1,.19-.4,.07-.62,.56-.52,.92,.12,.42,.52,.59,.92,.52h0Z"/><path d="M432.89,453.23c2.72-.44,5.45-.88,8.17-1.31l1.16-.19c.4-.06,.62-.56,.52-.92-.12-.43-.52-.59-.92-.52-2.72,.44-5.45,.88-8.17,1.31l-1.16,.19c-.4,.06-.62,.56-.52,.92,.12,.43,.52,.59,.92,.52h0Z"/><path d="M432.89,447.23c2.72-.46,5.43-.92,8.15-1.37,.39-.07,.78-.13,1.18-.2s.62-.56,.52-.92c-.12-.42-.52-.59-.92-.52-2.72,.46-5.43,.92-8.15,1.37-.39,.07-.78,.13-1.18,.2s-.62,.56-.52,.92c.12,.42,.52,.59,.92,.52h0Z"/><path d="M432.89,441.23c2.55-.44,5.1-.87,7.65-1.31l1.11-.19c.4-.07,.62-.56,.52-.92-.12-.42-.52-.59-.92-.52-2.55,.44-5.1,.87-7.65,1.31l-1.11,.19c-.4,.07-.62,.56-.52,.92,.12,.42,.52,.59,.92,.52h0Z"/><path d="M432.22,435.23c2.75-.58,5.5-1.17,8.25-1.75,.39-.08,.78-.17,1.18-.25,.94-.2,.54-1.65-.4-1.45-2.75,.58-5.5,1.17-8.25,1.75-.39,.08-.78,.17-1.18,.25-.94,.2-.54,1.65,.4,1.45h0Z"/><path d="M145.02,340.26h84.24c1.12,0,2.29,.1,3.41,0,.05,0,.11,0,.16,0,.41,0,.75-.34,.75-.75v-4.44c0-1.01-.52-3.44,.75-3.92,.45-.17,1.29,0,1.76,0h33.56l-.75-.75v23.84l.75-.75c-5.32,.04-10.63,.08-15.95,.12-3.89,.03-7.78,.06-11.66,.09-2.34,.02-4.75,.22-7.08,.05-1.25-.09-1.17-1.1-1.17-2.12v-5.11c0-.41-.34-.75-.75-.75-2.9,0-5.81,0-8.71,.01-7.02,0-14.03,.02-21.05,.03-8.45,.01-16.91,.02-25.36,.03-7.35,0-14.69,.02-22.04,.03h-7.23c-.76,0-1.52,.01-2.28,.01-.34,0-.84-.09-1.17,0-.04,.01-.11,0-.16,0l.75,.75v-7.1c0-.97-1.5-.97-1.5,0v7.1c0,.41,.34,.75,.75,.75,2.9,0,5.81,0,8.71-.01,7.02,0,14.03-.02,21.05-.03,8.45-.01,16.91-.02,25.36-.03,7.35,0,14.69-.02,22.04-.03h7.23c.76,0,1.52-.01,2.28-.01,.34,0,.84,.09,1.17,0,.04-.01,.11,0,.16,0l-.75-.75v4.68c0,1.55-.21,3.6,1.79,4.01,.55,.11,1.15,.04,1.7,.04l3.72-.03c7.88-.06,15.77-.12,23.65-.18,2.17-.02,4.34-.03,6.51-.05,.41,0,.75-.34,.75-.75v-23.84c0-.41-.34-.75-.75-.75h-29.68c-1.87,0-3.79-.11-5.66,0-2.46,.15-2.22,2.57-2.22,4.35v5.51l.75-.75h-84.24c-1.12,0-2.29-.1-3.41,0-.05,0-.11,0-.16,0-.97,0-.97,1.5,0,1.5Z"/><path d="M224.49,326.26h49.35c.42,0,.88-.03,1.3,.03,1.74,.27,2.49,1.78,2.5,3.37,.02,2.52,0,5.05,0,7.57,0,6,.2,12.05,0,18.05-.06,1.9-1.32,3.3-3.27,3.39-.37,.02-.75,0-1.13,0h-46.16c-1.76,0-3.87,.31-4.92-1.49-.49-.83-.37-1.67-.41-2.58-.05-1.21-.53-2.3-1.5-3.06-.76-.59-1.64-.81-2.58-.82-3.33-.05-6.66,0-9.99,0-14.3,0-28.59,.01-42.89,.02-6.26,0-12.51,0-18.77,0h-5.67c-.83,0-1.86,.13-2.67-.11-1.94-.58-1.94-2.38-1.94-4v-5.44c0-1.16-.28-2.93,.33-3.99,.53-.91,1.43-1.2,2.4-1.23,3.45-.11,6.92-.06,10.37-.09,14.34-.13,28.67-.25,43.01-.38,6.23-.05,12.46-.11,18.69-.16l5.55-.05c.82,0,1.7,.06,2.52-.07,2.07-.32,3.11-2.1,3.13-4.06,.02-2.1-.16-4.78,2.72-4.92,.96-.05,.97-1.55,0-1.5-2.39,.11-4.13,1.87-4.22,4.25-.07,1.88,.5,4.53-2.18,4.77-.76,.07-1.56,.01-2.33,.02l-14.93,.13-45.16,.4-15.05,.13c-.8,0-1.61-.02-2.42,.02-2.22,.11-3.85,1.76-3.94,3.97-.05,1.18,0,2.38,0,3.57v5.27c0,1.63,.32,3.13,1.74,4.16,1.22,.89,2.57,.81,3.98,.81h13.77c15.03-.01,30.05-.02,45.08-.02h15.92c1.01,0,2.03-.05,3.05,0,1.96,.08,2.44,1.57,2.46,3.23,.03,2.34,1.56,4.37,3.96,4.67,1.22,.15,2.5,.04,3.72,.04h31.39c4.91,0,9.83,.04,14.74,0,2.91-.03,5.03-2.06,5.06-4.99,.03-2.47,0-4.94,0-7.41,0-6.14,.18-12.3,0-18.43-.08-2.84-2.21-4.57-4.93-4.58-1.84-.01-3.68,0-5.51,0h-44.2c-.97,0-.97,1.5,0,1.5Z"/><rect x="145.02" y="339.01" width="124" height="8"/><rect class="cls-1" x="157.52" y="341.01" width="97" height="4"/><circle cx="274.52" cy="352.01" r="1.5"/></g><g id="_레이어_3"><path d="M247.88,456.77c5.38,0,10.75-.22,16.13-.15s10.74,.34,16.11,.71c1.48,.1,2.97,.2,4.45,.23s3.07,.16,4.5-.2c.27-.07,.2-.46-.06-.47-1.31-.05-2.63,.17-3.95,.17s-2.72-.05-4.08-.14c-2.68-.18-5.36-.41-8.04-.55-5.33-.27-10.67-.3-16-.21-3.02,.05-6.04,.07-9.06,.25-.22,.01-.23,.35,0,.35h0Z"/><path d="M257.44,462.14c5.32-.18,10.63-.27,15.95-.29s10.65,.14,15.95-.16c.22-.01,.21-.32,0-.34-5.29-.44-10.65-.29-15.95-.18-5.32,.11-10.63,.28-15.95,.49-.31,.01-.31,.5,0,.48h0Z"/><path d="M264.69,467.67c3.78,.02,7.55,.03,11.33,.05,1.87,.01,3.73,.02,5.6,.07s3.82,.18,5.72,.09c.46-.02,.45-.67,0-.71-1.9-.17-3.82-.12-5.72-.12s-3.73-.04-5.6-.06c-3.78-.05-7.55-.06-11.33-.01-.45,0-.45,.69,0,.7h0Z"/><path d="M249.07,473.9c5.56,.24,11.14-.19,16.71-.29,5.56-.1,11.07,.38,16.61,.71,1.51,.09,3.03,.16,4.54,.17s3.22,.09,4.78-.12c.38-.05,.41-.61,0-.62-1.39-.02-2.78,.11-4.17,.09s-2.78-.07-4.17-.14c-2.74-.14-5.48-.37-8.23-.54-5.57-.36-11.1-.21-16.67,.02-3.13,.13-6.27,.2-9.41,.21-.32,0-.32,.49,0,.5h0Z"/><path d="M30.28,288.37c-.7,.42-1.05,1.17-1.18,1.96-.16,1.05-.16,2.15-.15,3.21,.02,1.12,.1,2.25,.23,3.36,.09,.73,.32,1.6,1.11,1.85,.89,.28,1.58-.45,2-1.15,.54-.9,1.04-1.82,1.62-2.69,.22-.33,.49-.93,.95-.58,.39,.3,.44,.92,.56,1.36,.22,.79,.83,1.65,1.72,1.06,.42-.28,.64-.79,.87-1.22,.28-.53,.55-1.07,.8-1.62,.52-1.13,1.01-2.31,1.22-3.54,.07-.41-.49-.72-.71-.3-.85,1.62-1.45,3.37-2.29,5-.11,.21-.21,.43-.34,.63-.03,.05-.07,.15-.13,.18-.17,.09,.02,.04-.07-.02-.27-.18-.34-.99-.45-1.28-.22-.58-.69-1.16-1.33-1.28-.74-.14-1.2,.4-1.58,.94-.53,.74-1.03,1.5-1.5,2.27-.19,.31-.86,1.67-1.23,.86s-.33-1.81-.38-2.64c-.07-1.06-.08-2.12-.04-3.18,.03-.78-.02-1.96,.7-2.48,.42-.3,.05-.97-.41-.7h0Z"/><path d="M43.14,294.37c-.74,.07-1.43,.38-1.94,.92s-.98,1.46-.52,2.18c.39,.6,1.23,.65,1.81,.32,.32-.18,.54-.48,.69-.82,.08-.18,.14-.37,.18-.56,.02-.09,.04-.19,.05-.28s-.02-.2,0-.29l-.57-.16c-.13,.62,.22,1.2,.74,1.53,.6,.38,1.44,.32,2.09,.12,.37-.11,.3-.67-.09-.68-.52,0-1.02,.09-1.53-.07-.36-.11-.67-.43-.64-.82s-.54-.36-.59,0c0-.05-.06,.1-.06,.1-.03,.07-.05,.14-.07,.22-.04,.12-.08,.24-.13,.36-.09,.21-.24,.45-.43,.59-.21,.16-.65,.25-.79-.03-.2-.4,.25-.96,.51-1.21,.34-.33,.79-.57,1.26-.63,.21-.03,.39-.16,.39-.39,0-.2-.18-.41-.39-.39h0Z"/><path d="M47.62,294.18c.17,1.29,.13,2.59-.12,3.87l.77,.1c-.04-1.15,.4-2.3,1.21-3.13,.33-.34,.91-.89,1.43-.66,.45,.2,.62,.86,.73,1.28,.1,.37,.16,.75,.18,1.13,.01,.2,.02,.41,0,.61,0,.22,0,.44,.19,.59,.11,.09,.25,.12,.38,.05,.4-.22,.3-.82,.27-1.21-.03-.42-.1-.83-.2-1.23-.17-.67-.43-1.43-1.04-1.84-.71-.48-1.53-.11-2.11,.38-.53,.44-.97,1.02-1.28,1.64-.37,.74-.56,1.56-.54,2.39,.01,.43,.68,.55,.77,.1,.28-1.34,.34-2.72,.17-4.08-.03-.22-.17-.41-.41-.41-.2,0-.43,.19-.41,.41h0Z"/><path d="M56.89,293.15c-.79,.09-1.42,.4-2.02,.92-.47,.41-1.13,1.2-.54,1.79,.49,.49,1.35,.41,1.92,.15,.74-.33,1.15-1.08,1.53-1.76l-.47-.06c.37,1.02,.41,2.22,.24,3.29-.08,.53-.23,1.06-.42,1.57-.1,.25-.21,.49-.33,.73s-.35,.48-.44,.72c-.1,.08-.1,.11,.01,.08l-.06-.05c-.02-.11-.08-.17-.06-.31,.03-.2,.15-.36,.3-.49,.44-.39,1.08-.61,1.62-.82,1.17-.46,2.39-.81,3.58-1.21,.31-.1,.28-.64-.08-.6-1.29,.15-2.52,.49-3.73,.96-.94,.36-2.32,.8-2.55,1.94-.1,.47,.04,1.02,.45,1.3,.49,.33,.98,.08,1.27-.37,.6-.92,.94-2.04,1.08-3.12,.17-1.3-.02-2.51-.39-3.75-.05-.17-.3-.27-.43-.11-.5,.64-1.34,1.73-2.28,1.44-.14-.04-.17-.04-.14-.18,.02-.09,.15-.2,.22-.26,.16-.17,.34-.31,.54-.42,.39-.22,.85-.35,1.29-.42,.53-.08,.41-1.01-.13-.95h0Z"/><path d="M70.38,289.03c-.12,2.02-.36,4.03-.74,6.01-.18,.96-.39,1.91-.65,2.85-.13,.49-.27,.97-.42,1.46-.14,.44-.28,.82-.2,1.28,.05,.31,.48,.38,.68,.18,.32-.34,.4-.75,.52-1.19,.13-.49,.25-.98,.36-1.47,.23-1.02,.45-2.05,.64-3.08,.35-2,.58-4.02,.68-6.04,.03-.55-.83-.55-.86,0h0Z"/><path d="M71.12,290.38c1.32-.65,3.15-1.39,4.39-.19,1,.97,1.32,2.65,1.27,3.99-.05,1.48-.69,2.82-2.02,3.56-1.52,.84-3.35,.79-5.03,.76-.73-.01-.73,1.12,0,1.14,1.63,.04,3.3,.06,4.83-.58,1.33-.56,2.32-1.55,2.83-2.9,.48-1.27,.46-2.69,.16-4s-.93-2.59-2.13-3.2c-1.57-.79-3.32-.11-4.77,.61-.54,.27-.07,1.07,.47,.81h0Z"/><path d="M79.92,294.89c-.47,.28-.87,.65-1.18,1.1s-.59,1.07-.55,1.64c.08,1.13,1.36,1.55,2.3,1.67,1.15,.15,2.4-.12,3.05-1.16,.27-.44,.39-.99,.25-1.5-.16-.57-.61-.96-1.07-1.29-.54-.4-1.17-.75-1.86-.78-.62-.02-1.29,.25-1.57,.83-.26,.53,.45,.93,.78,.46,.48-.68,1.41-.31,1.98,.03,.34,.2,.73,.44,.89,.83,.12,.28,.07,.62-.06,.89-.38,.77-1.26,.95-2.05,.91-.58-.03-1.61-.14-1.9-.75-.2-.42,.07-.98,.29-1.35,.24-.41,.58-.76,.99-1.01,.3-.19,.03-.67-.28-.49h0Z"/><path d="M87.2,290.77c-.3,1.15-.47,2.33-.59,3.52-.06,.58-.1,1.17-.15,1.75s-.13,1.17,.06,1.72c.34,.96,1.43,1.39,2.23,.69,.39-.35,.63-.85,.89-1.29,.32-.55,.64-1.1,.93-1.66l-.67,.09s-.03,.29-.03,.34c0,.16,.03,.32,.1,.46,.14,.31,.4,.55,.72,.67,.69,.27,1.52,0,2.1-.42,1.26-.88,1.69-2.43,1.56-3.9-.04-.44-.66-.45-.69,0-.07,1.13-.39,2.27-1.27,3.03-.34,.29-1.06,.72-1.5,.42-.22-.15-.14-.36-.15-.59,0-.24-.08-.43-.24-.61-.19-.22-.52-.13-.67,.09-.53,.77-.93,1.64-1.48,2.39-.17,.23-.43,.53-.71,.28-.3-.27-.24-.77-.22-1.13,.12-1.86,.28-3.74,.75-5.55,.16-.63-.82-.9-.98-.27h0Z"/><path d="M95.74,295.09c-.65,.4-1.27,.88-1.77,1.46-.26,.3-.49,.63-.54,1.04-.04,.38,.1,.77,.41,.99s.73,.25,1.1,.21c.38-.04,.74-.16,1.09-.33s.66-.38,.97-.6,.59-.49,.68-.86-.12-.76-.49-.87c-.32-.09-.66-.05-.98,.05-.42,.13-.18,.75,.24,.57,.13-.06,.34-.14,.5-.11,.13,.03,.12,.16,.05,.25-.15,.2-.4,.34-.6,.48-.24,.15-.48,.3-.73,.42-.22,.11-.47,.19-.72,.22-.19,.02-.47,.04-.63-.07-.03-.02-.06-.07-.07-.14-.01-.06,0-.13,.03-.24,.09-.22,.27-.4,.43-.56,.44-.46,.9-.87,1.43-1.22,.42-.27,.04-.94-.39-.67h0Z"/><path d="M100.13,294.33c-.17,1.35-.52,2.69-1.02,3.96l.79,.11c0-1.11,.72-2.03,1.64-2.59,.23-.14,.47-.24,.72-.35,.11-.05,.06,.02,.03-.02,0,0,0,.14,.01,.08-.01,.14,.04,.3,.04,.44,0,.33-.04,.65-.12,.96-.09,.35-.33,.71-.23,1.07,.06,.22,.29,.27,.47,.19,.34-.15,.44-.58,.52-.91s.14-.66,.15-1c.03-.61,.06-1.58-.75-1.66-.31-.03-.6,.11-.87,.25s-.5,.3-.73,.47c-.45,.35-.86,.76-1.17,1.24-.34,.53-.55,1.17-.53,1.8,.01,.46,.64,.53,.79,.11,.47-1.35,.73-2.74,.8-4.17,.02-.36-.5-.34-.55,0h0Z"/><path d="M103.54,131.25c1.08,8.87,1.47,17.81,1.16,26.74s-1.28,17.71-2.95,26.43c-.47,2.46-.99,4.9-1.57,7.33-.29,1.24-.6,2.47-.92,3.7-.15,.58-.31,1.15-.46,1.72-.05,.2-.1,.42-.17,.57-.18,.42-.07,.01,.19,.03l1.29,.98c-1.52-7.17,.9-14.89,5.73-20.31,1.22-1.37,2.58-2.61,4.09-3.65,1.61-1.11,3.46-2.21,5.39-2.63,1.73-.38,3.26,.37,4.21,1.82,1.06,1.6,1.37,3.48,1.27,5.37-.15,2.76-1.08,5.42-2.07,7.97s-2.21,5.22-3.46,7.76c-.3,.61-.17,1.37,.45,1.73,.57,.33,1.42,.16,1.73-.45,1.28-2.5,2.38-5.09,3.37-7.72s1.83-5.18,2.15-7.92c.48-4.04-.65-9.62-5.2-10.85-2.44-.66-4.95,.41-7.06,1.57-1.83,1.01-3.54,2.27-5.06,3.71-3.04,2.87-5.36,6.47-6.84,10.38-1.67,4.42-2.14,9.29-1.3,13.93,.11,.62,.74,.93,1.29,.98,1.2,.13,1.99-.9,2.35-1.91s.55-2.15,.8-3.21c.54-2.28,1.04-4.57,1.49-6.87,.89-4.58,1.6-9.21,2.13-13.85,1.06-9.27,1.36-18.62,.9-27.94-.26-5.23-.74-10.44-1.46-15.63-.12-.84-1.6-.65-1.5,.2h0Z"/><path d="M135.48,184.75c2.47-.26,4.8-.9,7.06-1.93,1.09-.49,2.14-1.08,3.14-1.74s1.95-1.32,2.66-2.23c.76-.97,1.18-2.15,.92-3.39-.22-1.05-.96-1.9-1.83-2.5-1.91-1.32-4.43-1.05-6.44-.13s-3.71,2.7-5.06,4.5c-1.48,1.97-2.72,4.19-3.41,6.57-.34,1.19-.53,2.44-.55,3.68s.09,2.5,.74,3.52c1.36,2.12,4.44,2.17,6.67,2.01,2.82-.2,5.55-1.04,8.1-2.21,1.28-.59,2.52-1.27,3.74-1.98,1.28-.75,2.45-1.58,3.6-2.5,.4-.32,.38-1.01,.08-1.38-.35-.44-.87-.49-1.36-.27-3.83,1.73-7.34,4.08-11.46,5.12-1.86,.47-3.88,.69-5.78,.39-.65-.1-1.29-.28-1.55-.94-.33-.85-.3-1.91-.22-2.8,.17-1.99,.98-3.91,1.96-5.63s2.1-3.25,3.53-4.54c1.25-1.12,2.93-2.13,4.68-1.91,1.17,.15,2.64,1.13,1.96,2.42-.43,.82-1.32,1.44-2.06,1.96-.95,.67-1.95,1.27-2.99,1.79-2.01,1-4.21,1.67-6.42,2.06-1.16,.21-.91,2.2,.28,2.07h0Z"/><path d="M161.82,192.09c4.32-6.44,7.57-13.64,9.9-21.02,1.16-3.66,2.09-7.39,2.78-11.16,.74-4.02,1.23-8.14,.29-12.18-.38-1.62-1.18-3.32-2.66-4.22-1.64-.99-3.44-.32-4.5,1.15s-1.66,3.25-2.28,4.87-1.18,3.43-1.6,5.19c-1.71,7.15-1.62,14.66-.06,21.82,.79,3.62,1.98,7.15,3.5,10.53,.71,1.58,1.66,3.24,3.42,3.79,1.64,.51,3.49-.64,3.79-2.33,.15-.87-.23-1.58-.9-2.1-.82-.63-1.68,.54-1.3,1.3,.02,.03,.01-.06,.01-.07,0-.12-.05,.13-.09,.19-.03,.04-.18,.18-.33,.24-.09,.04-.24,.09-.35,.08,.28,.03-.15-.05-.07-.02-.14-.07-.26-.14-.36-.21-.5-.39-.81-1.01-1.09-1.56-.37-.73-.71-1.49-1.02-2.24-1.24-2.94-2.19-6-2.84-9.12-1.31-6.21-1.42-12.72-.1-18.93,.66-3.1,1.65-6.15,3.03-9.01,.41-.85,1.04-2.28,2.09-1.4s1.37,2.54,1.55,3.86c.47,3.47-.08,7.05-.71,10.47s-1.43,6.7-2.42,9.98c-2.24,7.42-5.44,14.44-9.2,21.21-.55,1,.89,1.82,1.52,.89h0Z"/><path d="M181.27,190.13c3.58-5.24,6.5-10.89,8.69-16.86,1.08-2.94,2-5.95,2.68-9,.65-2.9,1.2-5.89,1.13-8.88-.07-3.2-.81-6.45-2.76-9.05-.44-.59-1.13-.72-1.71-.22-2.17,1.87-2.62,4.98-3.17,7.63-.69,3.3-1.24,6.63-1.66,9.98-.83,6.58-1.09,13.2-.89,19.82,.05,1.71-.06,3.71,.88,5.22,.46,.75,1.18,1.33,2.01,1.61,.92,.31,1.74,.03,2.46-.57s.16-1.99-.78-1.88c-1.03,.12-1.57-.61-1.77-1.56-.28-1.34-.24-2.8-.29-4.16-.11-2.98-.11-5.97,0-8.96,.22-5.99,.88-11.96,1.99-17.84,.29-1.54,.57-3.09,.98-4.6,.33-1.2,.79-2.35,1.78-3.15l-1.71-.22c3.18,4.53,2.28,10.53,1.12,15.59-1.35,5.88-3.29,11.56-5.86,17.01-1.46,3.1-3.13,6.1-4.99,8.99-.76,1.18,1.09,2.22,1.86,1.09h0Z"/><path d="M204.62,170.92c-4.2-1.13-7.36,3.75-7.93,7.29-.64,4,.93,8.76,4.98,10.29s8.48-.06,11.48-2.66,5.36-7.76,2.8-11.52c-2.95-4.34-9.08-3.82-13.02-1.28-1.09,.7-.14,2.27,1.01,1.72,2.88-1.38,6.7-2.62,9.36-.1,2.53,2.39,1.06,6.33-.97,8.53s-5.1,3.55-8.17,3.39c-1.68-.09-3.16-.78-4.12-2.19-.84-1.24-1.32-2.69-1.38-4.19-.07-1.71,.33-3.41,1.21-4.88s2.49-3.11,4.3-2.83c1.02,.15,1.48-1.3,.44-1.58h0Z"/></g></svg>